<svg width="25" height="12" viewBox="0 0 25 12" fill="none" xmlns="http://www.w3.org/2000/svg">
<path fill-rule="evenodd" clip-rule="evenodd" d="M24.7071 5.29289C25.0976 5.68342 25.0976 6.31658 24.7071 6.70711L19.7071 11.7071C19.3166 12.0976 18.6834 12.0976 18.2929 11.7071C17.9024 11.3166 17.9024 10.6834 18.2929 10.2929L22.5858 6L18.2929 1.70711C17.9024 1.31658 17.9024 0.683417 18.2929 0.292893C18.6834 -0.0976311 19.3166 -0.097631 19.7071 0.292893L24.7071 5.29289Z" fill="#263238"/>
<path opacity="0.4" fill-rule="evenodd" clip-rule="evenodd" d="M8.70711 5.29289C9.09763 5.68342 9.09763 6.31658 8.70711 6.70711L3.70711 11.7071C3.31658 12.0976 2.68342 12.0976 2.29289 11.7071C1.90237 11.3166 1.90237 10.6834 2.29289 10.2929L6.58579 6L2.29289 1.70711C1.90237 1.31658 1.90237 0.683417 2.29289 0.292893C2.68342 -0.0976311 3.31658 -0.097631 3.70711 0.292893L8.70711 5.29289Z" fill="#263238"/>
<path opacity="0.6" fill-rule="evenodd" clip-rule="evenodd" d="M16.7071 5.29289C17.0976 5.68342 17.0976 6.31658 16.7071 6.70711L11.7071 11.7071C11.3166 12.0976 10.6834 12.0976 10.2929 11.7071C9.90237 11.3166 9.90237 10.6834 10.2929 10.2929L14.5858 6L10.2929 1.70711C9.90237 1.31658 9.90237 0.683417 10.2929 0.292893C10.6834 -0.0976311 11.3166 -0.097631 11.7071 0.292893L16.7071 5.29289Z" fill="#263238"/>
</svg>
